<svg width="141" height="140" viewBox="0 0 141 140" fill="none" xmlns="http://www.w3.org/2000/svg">
<path d="M112.242 69.9998C112.242 92.849 93.7294 111.362 70.8802 111.362C66.6105 111.362 62.5077 110.711 58.6383 109.511C60.3228 106.759 62.8412 102.256 63.7752 98.6697C64.2756 96.7351 66.3437 88.8296 66.3437 88.8296C67.6946 91.398 71.6307 93.5829 75.8169 93.5829C88.2923 93.5829 97.2819 82.1082 97.2819 67.8483C97.2819 54.1888 86.1241 43.965 71.7808 43.965C53.935 43.965 44.4451 55.94 44.4451 68.9991C44.4451 75.07 47.6807 82.6252 52.8343 85.0269C53.6182 85.3938 54.0351 85.2271 54.2186 84.4765C54.352 83.9095 55.0525 81.0908 55.3694 79.7899C55.4694 79.373 55.4194 79.0061 55.0858 78.6058C53.4013 76.521 52.0337 72.7184 52.0337 69.1659C52.0337 60.0429 58.9385 51.2201 70.7134 51.2201C80.8704 51.2201 87.9921 58.1416 87.9921 68.0484C87.9921 79.2396 82.3381 86.995 74.983 86.995C70.9302 86.995 67.8781 83.6426 68.8621 79.5231C70.0296 74.603 72.2811 69.2993 72.2811 65.7468C72.2811 62.578 70.58 59.9261 67.0442 59.9261C62.8913 59.9261 59.5556 64.2124 59.5556 69.9664C59.5556 73.6357 60.7898 76.104 60.7898 76.104C60.7898 76.104 56.7036 93.4161 55.9531 96.6517C55.1192 100.221 55.4528 105.258 55.803 108.527C40.4257 102.506 29.5181 87.5287 29.5181 69.9998C29.5181 47.1506 48.0309 28.6377 70.8802 28.6377C93.7294 28.6377 112.242 47.1506 112.242 69.9998Z" fill="white"/>
</svg>
