<svg width="140" height="140" viewBox="0 0 140 140" fill="none" xmlns="http://www.w3.org/2000/svg">
<path d="M70.0091 48.7897C58.2714 48.7897 48.8036 58.2595 48.8036 69.9999C48.8036 81.7403 58.2714 91.2102 70.0091 91.2102C81.7469 91.2102 91.2147 81.7403 91.2147 69.9999C91.2147 58.2595 81.7469 48.7897 70.0091 48.7897ZM70.0091 83.7894C62.4239 83.7894 56.2228 77.6053 56.2228 69.9999C56.2228 62.3945 62.4054 56.2105 70.0091 56.2105C77.6129 56.2105 83.7955 62.3945 83.7955 69.9999C83.7955 77.6053 77.5944 83.7894 70.0091 83.7894ZM97.0282 47.9221C97.0282 50.6726 94.8135 52.8693 92.0821 52.8693C89.3322 52.8693 87.136 50.6541 87.136 47.9221C87.136 45.19 89.3507 42.9748 92.0821 42.9748C94.8135 42.9748 97.0282 45.19 97.0282 47.9221ZM111.073 52.9431C110.759 46.3161 109.246 40.4459 104.392 35.6094C99.5566 30.7729 93.6877 29.2592 87.0622 28.927C80.2336 28.5393 59.7663 28.5393 52.9377 28.927C46.3306 29.2408 40.4617 30.7545 35.6078 35.5909C30.754 40.4274 29.2591 46.2976 28.9269 52.9247C28.5393 59.7548 28.5393 80.2266 28.9269 87.0567C29.2407 93.6838 30.754 99.554 35.6078 104.39C40.4617 109.227 46.3121 110.741 52.9377 111.073C59.7663 111.461 80.2336 111.461 87.0622 111.073C93.6877 110.759 99.5566 109.245 104.392 104.39C109.227 99.554 110.741 93.6838 111.073 87.0567C111.461 80.2266 111.461 59.7732 111.073 52.9431ZM102.251 94.3853C100.812 98.0034 98.0248 100.791 94.389 102.249C88.9446 104.409 76.0257 103.91 70.0091 103.91C63.9926 103.91 51.0552 104.39 45.6293 102.249C42.012 100.809 39.2252 98.0218 37.7672 94.3853C35.6078 88.9396 36.1061 76.0178 36.1061 69.9999C36.1061 63.982 35.6263 51.0418 37.7672 45.6146C39.2067 41.9965 41.9935 39.2091 45.6293 37.7507C51.0737 35.5909 63.9926 36.0894 70.0091 36.0894C76.0257 36.0894 88.9631 35.6094 94.389 37.7507C98.0063 39.1906 100.793 41.978 102.251 45.6146C104.41 51.0602 103.912 63.982 103.912 69.9999C103.912 76.0178 104.41 88.9581 102.251 94.3853Z" fill="white"/>
</svg>
