<svg width="141" height="140" viewBox="0 0 141 140" fill="none" xmlns="http://www.w3.org/2000/svg">
<path d="M41.0882 28.6382C37.668 28.6539 34.4238 30.1566 32.1998 32.755C30.3616 34.9027 29.3213 37.6426 29.4976 40.464C30.6085 58.2462 37.9572 75.7095 51.5441 89.2965C65.1312 102.884 82.5947 110.232 100.377 111.343C103.198 111.519 105.938 110.479 108.086 108.641C110.684 106.417 112.187 103.173 112.202 99.7524V91.4213C112.202 87.6263 109.621 84.3182 105.939 83.3966L93.1064 80.1828C90.9502 79.643 88.6679 79.9934 86.7731 81.1548L77.2283 87.0063C75.8241 87.8675 74.0381 87.8182 72.743 86.8007C69.4241 84.1937 65.4439 80.5815 62.8513 77.9894C60.259 75.3968 56.6469 71.4165 54.04 68.0976C53.0224 66.8026 52.9733 65.0166 53.8342 63.6123L59.6856 54.0674C60.8472 52.1727 61.1975 49.8903 60.6577 47.7344L57.4442 34.9012C56.5224 31.22 53.2143 28.6382 49.4195 28.6382H41.0882Z" fill="white"/>
</svg>
