<svg width="350" height="87" viewBox="0 0 350 87" fill="none" xmlns="http://www.w3.org/2000/svg">
<rect width="350" height="87" fill="#FF00A7"/>
<path d="M20.1851 27.3345C20.0854 27.7163 20.0356 28.1479 20.0356 28.6294V32.0659L12.8389 34.8799C12.7725 34.5312 12.7393 33.9751 12.7393 33.2114V30.9951L20.1851 27.3345ZM25.9375 30.8457L33.2339 27.9819V31.9165L25.9375 33.6597V30.8457ZM33.2339 35.2036H25.9375V34.6807L33.2339 32.9375V35.2036ZM12.9883 35.876L20.0356 33.1367V33.062C20.0356 33.8423 20.1851 34.4731 20.4839 34.9546L13.2124 36.6978C13.1128 36.4487 13.0381 36.1748 12.9883 35.876ZM16.375 42.1016L25.3896 40.1841C25.7051 40.4331 26.1118 40.7319 26.6099 41.0806C27.2573 41.5454 27.6226 41.811 27.7056 41.8774L18.8652 44.293C17.7363 43.4463 16.9062 42.7158 16.375 42.1016ZM19.9609 45.04L28.6021 42.6743C29.814 43.7368 30.7188 44.7744 31.3164 45.7871L24.1196 48.8501C23.1899 47.6382 21.8037 46.3682 19.9609 45.04ZM12.7393 54.752L19.3633 51.938H20.0356V55.001L12.7393 57.9893V54.752ZM25.9375 52.9341C25.9375 51.7554 25.5474 50.6597 24.7671 49.647L31.8394 46.6587C32.3872 47.605 32.7524 48.6177 32.9351 49.6968L25.9375 52.5605V52.9341ZM12.7393 59.0601L20.0356 56.0718V58.5122L12.9883 61.5254C12.8389 60.8945 12.7559 60.0728 12.7393 59.0601ZM25.9375 53.6313L33.1343 50.6929C33.2007 51.0249 33.2339 51.5728 33.2339 52.3364V53.1831L25.9375 56.1714V53.6313ZM13.2124 62.4966L20.1104 59.6577C20.21 61.1021 21.1729 61.8242 22.999 61.8242C24.958 61.8242 25.9375 60.7202 25.9375 58.5122V57.2422L33.2339 54.2539V59.0601L14.2085 64.8623C13.7603 64.1982 13.4282 63.4097 13.2124 62.4966ZM22.999 68.7969C21.1729 68.7969 20.0356 68.7139 19.5874 68.5479L32.1382 64.3394C31.0425 67.311 27.9961 68.7969 22.999 68.7969ZM14.8062 65.709L33.1841 60.106C33.1343 61.1353 32.9268 62.1479 32.5615 63.144L18.0933 68C16.5493 67.4355 15.4536 66.6719 14.8062 65.709ZM12.7393 51.938H16.8232L12.7393 53.6812V51.938ZM13.5361 37.644L21.0068 35.8511C21.7041 36.98 22.8247 38.1504 24.3687 39.3623L15.6528 41.23C14.6401 40.0347 13.9346 38.8394 13.5361 37.644ZM12.7393 28.6294C12.7393 28.314 12.7476 28.0732 12.7642 27.9072L23.7959 18.3696C27.1494 18.4858 29.4902 19.3574 30.8184 20.9844L12.7393 29.8994V28.6294ZM22.252 18.3696L12.814 26.5127C13.063 21.2832 16.209 18.5688 22.252 18.3696ZM23.9951 25.4419L31.4409 21.7812C32.437 23.0264 33.0098 24.7529 33.1592 26.9609L25.9375 29.7749V28.6294C25.9375 26.853 25.29 25.7905 23.9951 25.4419ZM37.2432 19.1416H39.335L37.2432 21.2334V19.1416ZM37.2432 26.0894V22.6279L40.7295 19.1416H44.1411L38.9116 26.0894H37.2432ZM43.8423 26.0894H40.1567L45.3862 19.1416H48.7979L43.8423 27.708V26.0894ZM43.8423 29.7002L49.9683 19.1416H53.3301L43.8423 34.332V29.7002ZM43.8423 40.458L51.1387 34.1079V40.4331L43.8423 45.3389V40.458ZM43.8423 46.5591L51.1387 41.6533V44.5171L43.8423 49.4229V46.5591ZM43.8423 50.6431L51.1387 45.7373V50.1201L43.8423 55.1753V50.6431ZM43.8423 56.3706L51.1387 51.3154V55.2749L43.8423 59.9565V56.3706ZM43.8423 61.1519L51.1387 56.4702V59.9565L43.8423 64.6382V61.1519ZM43.8423 68V65.8335L51.1387 61.1519V63.5425L45.5107 68H43.8423ZM51.1387 68H47.1294L51.1387 64.8125V68ZM43.8423 36.2246L54.5005 19.1416H56.0693L53.7783 26.0894H51.1387V32.7881L43.8423 39.1382V36.2246ZM57.7378 19.1416V26.0894H54.8242L57.1152 19.1416H57.7378ZM71.3096 68.7969L81.8682 63.1689C80.9883 66.9043 77.7759 68.7803 72.231 68.7969H71.3096ZM61.9961 27.7329L69.2925 21.2583V27.21L61.9961 29.4761V27.7329ZM75.1943 26.4131L82.4907 24.147V27.5088L75.1943 29.7002V26.4131ZM61.9961 34.6807L69.2925 32.5142V34.4067L61.9961 37.0464V34.6807ZM75.1943 33.3359L82.4907 30.6963V37.2954L75.1943 38.2915V33.3359ZM61.9961 41.1055L69.2925 40.1094V43.1475L61.9961 45.0649V41.1055ZM75.1943 42.5996L82.4907 40.6821V44.2681L75.1943 45.8867V42.5996ZM61.9961 49.8711L69.2925 48.2524V51.4897L61.9961 53.3076V49.8711ZM75.1943 51.0664L82.4907 49.2236V51.0664L75.1943 53.3574V51.0664ZM61.9961 58.5122V58.4873L69.2925 56.2212V59.0601L62.1953 61.3262C62.0625 60.6787 61.9961 59.7407 61.9961 58.5122ZM75.1943 54.4033L82.4907 52.1123V54.8765L75.1943 57.1924V54.4033ZM62.3945 62.3223L69.4668 60.0562C69.6826 61.2349 70.604 61.8242 72.231 61.8242C74.2065 61.8242 75.1943 60.7202 75.1943 58.5122V58.2383L82.4907 55.9224V58.8359L64.6855 66.4062C63.54 65.4102 62.7764 64.0488 62.3945 62.3223ZM65.5073 67.1284L82.4658 59.9316C82.4492 60.4795 82.3579 61.127 82.1919 61.874L69.5664 68.5977C67.6904 68.332 66.3374 67.8423 65.5073 67.1284ZM61.9961 54.3535L69.2925 52.5356V55.1753L61.9961 57.4414V54.3535ZM75.1943 46.9077L82.4907 45.2891V48.1777L75.1943 50.0205V46.9077ZM61.9961 46.0859L69.2925 44.1685V47.2314L61.9961 48.8501V46.0859ZM75.1943 39.2876L82.4907 38.2915V39.6611L75.1943 41.5786V39.2876ZM61.9961 38.0923L69.2925 35.4526V39.1133L61.9961 40.1094V38.0923ZM75.1943 30.7461L82.4907 28.5547V29.6255L75.1943 32.2651V30.7461ZM61.9961 30.522L69.2925 28.2559V31.4683L61.9961 33.6348V30.522ZM75.1943 19.1416H82.4907V23.1011L75.1943 25.3672V19.1416ZM61.9961 19.1416H69.2925V19.9136L61.9961 26.3882V19.1416ZM88.7412 23.8979L94.5435 19.1416H98.752L88.7412 27.9819V23.8979ZM88.7412 19.1416H92.9746L88.7412 22.6279V19.1416ZM101.939 29.4263C101.939 27.7661 101.607 26.8115 100.943 26.5625L106.422 21.2334C107.318 21.9307 107.991 22.9434 108.439 24.2715L101.939 29.4512V29.4263ZM88.7412 44.6914L96.0376 40.981V44.1685L88.7412 46.584V44.6914ZM101.939 43.2471L109.236 40.8315V43.3716L101.939 46.8828V43.2471ZM88.7412 54.3286L96.0376 50.8174V54.1045L88.7412 57.8647V54.3286ZM101.939 52.187L109.236 48.4268V53.1333L101.939 56.0718V52.187ZM109.161 59.7822C108.829 65.2441 105.542 67.9834 99.2998 68H93.6719L109.161 59.7822ZM88.7412 68V62.4717L96.0376 59.5332V61.0522H99.001C100.96 61.0522 101.939 59.9482 101.939 57.7402V57.1675L109.236 54.229V57.7402C109.236 58.1387 109.228 58.4375 109.211 58.6367L91.5552 68H88.7412ZM88.7412 58.9854L96.0376 55.2251V58.4375L88.7412 61.376V58.9854ZM101.939 48.0034L109.236 44.4922V47.3062L101.939 51.0664V48.0034ZM88.7412 47.6299L96.0376 45.2144V49.6968L88.7412 53.208V47.6299ZM101.939 37.9678L109.236 34.2573V39.7856L101.939 42.2012V37.9678ZM88.7412 41.2798L96.0376 35.4526V39.8604L88.7412 43.5708V41.2798ZM101.939 30.7461L108.763 25.2676C109.078 26.1641 109.236 27.5503 109.236 29.4263V33.1367L101.939 36.8472V30.7461ZM88.7412 38.4409L96.0376 31.3438V34.1577L88.7412 39.9849V38.4409ZM99.001 26.0894H96.0376V29.9741L88.7412 37.0713V29.3018L100.246 19.1416C102.67 19.1914 104.471 19.6812 105.65 20.6108L99.9224 26.189C99.7729 26.1226 99.4658 26.0894 99.001 26.0894ZM125.796 38.3662L126.568 34.9546L133.217 34.0332L132.196 37.3203L125.796 38.3662ZM114.042 22.5034L116.707 19.1416H120.691L120.94 20.312L114.59 24.2964L114.042 22.5034ZM115.86 28.3804L121.812 24.1968L122.658 27.957L116.507 30.3975L115.86 28.3804ZM128.411 26.7368L136.454 23.5493L134.985 28.2559L127.639 30.248L128.411 26.7368ZM117.603 34.0083L123.629 32.3647L124.078 34.2822L117.952 35.1289L117.603 34.0083ZM121.762 50.4937L129.481 46.1108L129.257 46.833L129.058 47.4307V49.896L121.762 52.2617V50.4937ZM129.058 68H125.472L129.058 66.5806V68ZM121.762 68V65.6343L129.058 63.667V65.5098L122.758 68H121.762ZM121.762 62.2725L129.058 58.7363V62.646L121.762 64.6133V62.2725ZM121.762 58.7861L129.058 54.4033V57.6157L121.762 61.1519V58.7861ZM121.762 53.3325L129.058 50.9668V53.2578L121.762 57.6406V53.3325ZM121.762 47.4307L121.538 46.833L120.99 45.0151L130.577 42.5L129.905 44.7412L121.762 49.3481V47.4307ZM125.572 39.4121L131.847 38.3911L130.926 41.3794L120.691 44.0688L119.57 40.3833L125.248 39.4619L125.397 40.1343L125.572 39.4121ZM127.39 31.3438L134.636 29.3765L133.541 32.9873L126.817 33.9087L127.39 31.3438ZM116.806 31.3687L122.882 28.9282L123.405 31.3936L117.304 33.062L116.806 31.3687ZM130.104 19.1416H131.972L129.606 21.3828L130.104 19.1416ZM137.799 19.1416L136.828 22.3291L128.685 25.5664L129.208 23.1011L133.416 19.1416H137.799ZM114.914 25.2925L121.189 21.333L121.587 23.126L115.561 27.3843L114.914 25.2925ZM112.996 19.1416H115.437L113.693 21.3579L112.996 19.1416ZM125.024 38.4907L119.271 39.4121L118.25 36.1001L124.302 35.2534L125.024 38.4907ZM160.584 41.6533L165.316 38.9141L166.885 45.6626L162.104 48.4517L160.584 41.6533ZM153.338 24.2217L157.472 19.1416H160.634L161.282 21.856L153.338 28.48V24.2217ZM153.338 33.0869L162.452 26.8364L163.797 32.5142L153.338 38.4409V33.0869ZM174.978 27.3345L184.167 22.105V26.8115L173.683 32.9126L174.978 27.3345ZM160.41 68H157.123L160.41 66.5806V68ZM153.338 68V63.9658L160.41 61.1021V65.4849L154.633 68H153.338ZM153.338 60.106L160.41 56.5698V60.0312L153.338 62.895V60.106ZM153.338 54.7021L160.41 50.5933V55.4741L153.338 59.0103V54.7021ZM184.167 68H177.169V67.228L184.167 62.9199V68ZM177.169 59.3091L184.167 56.271V61.7744L177.169 66.0576V59.3091ZM177.169 54.2539L184.167 51.415V55.1753L177.169 58.2134V54.2539ZM177.169 48.2026L184.167 44.6914V50.3442L177.169 53.1831V48.2026ZM171.392 68H166.362L165.565 64.3394L172.836 61.1768L171.392 68ZM164.494 59.4087L174.057 55.5239L173.11 59.9814L165.341 63.3433L164.494 59.4087ZM169.201 52.187L175.426 49.0742L174.306 54.3286L164.27 58.4126L163.548 55.0259L168.503 52.5356L168.802 53.8804L169.201 52.187ZM173.384 34.2324L184.167 27.9819V35.627L171.317 43.0977L173.384 34.2324ZM153.338 39.5864L164.046 33.5352L165.067 37.8931L153.338 44.6914V39.5864ZM176.871 19.1416H184.167V20.9595L175.277 26.0146L176.871 19.1416ZM153.338 29.7749L161.531 22.9268L162.203 25.7905L153.338 31.8667V29.7749ZM153.338 19.1416H156.202L153.338 22.6528V19.1416ZM177.169 40.8564L184.167 36.7725V43.5957L177.169 47.1069V40.8564ZM169.5 50.9419L171.019 44.4424L177.145 40.8564L175.675 47.8291L169.5 50.9419ZM168.254 51.5396L163.324 54.0298L162.328 49.4727L167.134 46.6836L168.254 51.5396ZM160.41 49.4229L153.338 53.5317V51.8882L160.41 46.335V49.4229ZM153.338 45.8618L160.41 41.7529V45.2642L153.338 50.2446V45.8618ZM197.938 50.5933L190.642 60.2305V53.8555L197.938 49.5723V50.5933ZM190.642 50.7427L200.578 40.0845H205.882L200.603 47.0571H197.938V48.4019L190.642 52.71V50.7427ZM190.642 61.8989L197.938 52.2617V57.8398L190.642 63.4678V61.8989ZM195.821 68L204.014 61.0522H206.828L201.599 68H195.821ZM209.169 61.0522V68H202.844L208.073 61.0522H209.169ZM190.642 68V64.7378L197.938 59.1099V61.0522H202.495L194.302 68H190.642ZM207.6 40.0845V47.0571H201.848L207.127 40.0845H207.6ZM209.169 19.1416V26.0894H202.47L207.052 19.1416H209.169ZM197.938 26.0894V31.1196L190.642 42.1514V36.6479L202.146 19.1416H205.857L201.275 26.0894H197.938ZM197.938 40.0845H199.208L190.642 49.2734V43.9692L197.938 32.9375V40.0845ZM200.951 19.1416L190.642 34.8301V26.0146L197.938 19.1416H200.951ZM190.642 19.1416H196.494L190.642 24.645V19.1416ZM212.406 19.1416H214.498L212.406 21.2334V19.1416ZM212.406 26.0894V22.6279L215.893 19.1416H219.304L214.075 26.0894H212.406ZM219.005 26.0894H215.32L220.549 19.1416H223.961L219.005 27.708V26.0894ZM219.005 29.7002L225.131 19.1416H228.493L219.005 34.332V29.7002ZM219.005 40.458L226.302 34.1079V40.4331L219.005 45.3389V40.458ZM219.005 46.5591L226.302 41.6533V44.5171L219.005 49.4229V46.5591ZM219.005 50.6431L226.302 45.7373V50.1201L219.005 55.1753V50.6431ZM219.005 56.3706L226.302 51.3154V55.2749L219.005 59.9565V56.3706ZM219.005 61.1519L226.302 56.4702V59.9565L219.005 64.6382V61.1519ZM219.005 68V65.8335L226.302 61.1519V63.5425L220.674 68H219.005ZM226.302 68H222.292L226.302 64.8125V68ZM219.005 36.2246L229.664 19.1416H231.232L228.941 26.0894H226.302V32.7881L219.005 39.1382V36.2246ZM232.901 19.1416V26.0894H229.987L232.278 19.1416H232.901ZM257.903 19.1416V26.5874L250.606 31.1445V25.8901L256.06 19.1416H257.903ZM237.408 41.5288L244.705 32.0908V39.0137L237.408 42.6992V41.5288ZM244.705 54.0049L237.408 59.1597V54.7769L244.705 51.1162V54.0049ZM237.408 49.4976L257.903 38.4409V44.6665L250.606 49.8213V47.0571H244.705V50.0205L237.408 53.6812V49.4976ZM237.408 60.3799L244.705 55.2251V58.3628L237.408 62.7705V60.3799ZM237.408 68V63.916L244.705 59.5083V64.3145L238.529 68H237.408ZM244.705 68H240.471L244.705 65.46V68ZM250.606 51.0415L257.903 45.8867V50.4189L250.606 54.8018V51.0415ZM250.606 55.9473L257.903 51.5645V56.4204L250.606 60.7783V55.9473ZM250.606 61.9238L257.903 57.5659V62.9199L250.606 65.6343V61.9238ZM257.903 68H250.606V66.7051L257.903 63.9658V68ZM237.408 43.7949L244.705 40.1094V40.0845H250.606V37.146L257.903 33.4604V37.2954L237.408 48.3521V43.7949ZM250.606 32.3149L257.903 27.7578V32.3647L250.606 36.0503V32.3149ZM250.606 19.1416H254.69L250.606 24.5703V19.1416ZM244.705 30.4722L237.408 39.9102V30.2979L244.705 24.0474V30.4722ZM237.408 23.9478L241.916 19.1416H244.705V22.7275L237.408 28.978V23.9478ZM237.408 19.1416H240.546L237.408 22.4785V19.1416ZM271.425 27.0605C271.275 27.5088 271.201 28.0317 271.201 28.6294V31.1943L263.904 33.5601V31.2441L271.425 27.0605ZM263.904 34.606L271.201 32.2402V34.8301L263.904 36.4238V34.606ZM277.103 34.5312L284.399 32.9375V34.5562L277.103 35.9756V34.5312ZM263.904 39.5366L271.201 38.1172V44.7412L263.904 46.2852V39.5366ZM277.103 44.5171L284.399 42.9731V44.8906L277.103 46.7832V44.5171ZM263.904 51.2656L271.201 49.373V52.1621L263.904 53.208V51.2656ZM277.103 52.3115L284.399 51.2656V52.0625L277.103 54.4282V52.3115ZM267.067 66.8545L284.399 57.8398V58.5122C284.399 59.7407 284.308 60.7866 284.125 61.6499L270.503 68.3984C268.926 68.0498 267.781 67.5352 267.067 66.8545ZM274.139 68.7969C272.861 68.7969 272.164 68.7803 272.047 68.7471L283.851 62.895C283.004 66.813 279.767 68.7803 274.139 68.7969ZM263.904 54.2041L271.201 53.1582V56.3955L263.904 58.7861V54.2041ZM277.103 47.8042L284.399 45.9116V50.2695L277.103 51.3154V47.8042ZM263.904 47.3062L271.201 45.7622V48.3521L263.904 50.2446V47.3062ZM277.103 36.9717L284.399 35.5522V41.9521L277.103 43.4961V36.9717ZM263.904 37.4448L271.201 35.8511V37.1211L263.904 38.5405V37.4448ZM277.103 30.3228L284.399 27.9321V31.9165L277.103 33.5103V30.3228ZM263.904 28.6294C263.904 27.8159 263.946 27.1353 264.029 26.5874L276.032 18.4692C278.489 18.6851 280.257 19.3242 281.336 20.3867L263.904 30.0986V28.6294ZM274.388 18.3696L264.203 25.2676C264.801 20.6689 268.113 18.3696 274.139 18.3696H274.388ZM274.637 61.7993L266.32 66.1323C264.875 64.7378 264.087 62.6294 263.954 59.8071L271.201 57.4414V58.5122C271.201 60.7202 272.18 61.8242 274.139 61.8242C274.322 61.8242 274.488 61.8159 274.637 61.7993ZM276.505 60.8281C276.903 60.2803 277.103 59.5083 277.103 58.5122V55.4741L284.399 53.1084V56.7192L276.505 60.8281ZM274.538 25.3423L282.083 21.1338C283.411 22.4287 284.158 24.3545 284.324 26.9111L277.103 29.252V28.6294C277.103 26.5874 276.248 25.4917 274.538 25.3423ZM290.4 23.8979L296.203 19.1416H300.411L290.4 27.9819V23.8979ZM290.4 19.1416H294.634L290.4 22.6279V19.1416ZM303.599 29.4263C303.599 27.7661 303.267 26.8115 302.603 26.5625L308.081 21.2334C308.978 21.9307 309.65 22.9434 310.098 24.2715L303.599 29.4512V29.4263ZM290.4 44.6914L297.697 40.981V44.1685L290.4 46.584V44.6914ZM303.599 43.2471L310.895 40.8315V43.3716L303.599 46.8828V43.2471ZM290.4 54.3286L297.697 50.8174V54.1045L290.4 57.8647V54.3286ZM303.599 52.187L310.895 48.4268V53.1333L303.599 56.0718V52.187ZM310.82 59.7822C310.488 65.2441 307.201 67.9834 300.959 68H295.331L310.82 59.7822ZM290.4 68V62.4717L297.697 59.5332V61.0522H300.66C302.619 61.0522 303.599 59.9482 303.599 57.7402V57.1675L310.895 54.229V57.7402C310.895 58.1387 310.887 58.4375 310.87 58.6367L293.214 68H290.4ZM290.4 58.9854L297.697 55.2251V58.4375L290.4 61.376V58.9854ZM303.599 48.0034L310.895 44.4922V47.3062L303.599 51.0664V48.0034ZM290.4 47.6299L297.697 45.2144V49.6968L290.4 53.208V47.6299ZM303.599 37.9678L310.895 34.2573V39.7856L303.599 42.2012V37.9678ZM290.4 41.2798L297.697 35.4526V39.8604L290.4 43.5708V41.2798ZM303.599 30.7461L310.422 25.2676C310.737 26.1641 310.895 27.5503 310.895 29.4263V33.1367L303.599 36.8472V30.7461ZM290.4 38.4409L297.697 31.3438V34.1577L290.4 39.9849V38.4409ZM300.66 26.0894H297.697V29.9741L290.4 37.0713V29.3018L301.905 19.1416C304.329 19.1914 306.13 19.6812 307.309 20.6108L301.582 26.189C301.432 26.1226 301.125 26.0894 300.66 26.0894ZM323.844 27.3345C323.745 27.7163 323.695 28.1479 323.695 28.6294V32.0659L316.498 34.8799C316.432 34.5312 316.398 33.9751 316.398 33.2114V30.9951L323.844 27.3345ZM329.597 30.8457L336.893 27.9819V31.9165L329.597 33.6597V30.8457ZM336.893 35.2036H329.597V34.6807L336.893 32.9375V35.2036ZM316.647 35.876L323.695 33.1367V33.062C323.695 33.8423 323.844 34.4731 324.143 34.9546L316.872 36.6978C316.772 36.4487 316.697 36.1748 316.647 35.876ZM320.034 42.1016L329.049 40.1841C329.364 40.4331 329.771 40.7319 330.269 41.0806C330.917 41.5454 331.282 41.811 331.365 41.8774L322.524 44.293C321.396 43.4463 320.565 42.7158 320.034 42.1016ZM323.62 45.04L332.261 42.6743C333.473 43.7368 334.378 44.7744 334.976 45.7871L327.779 48.8501C326.849 47.6382 325.463 46.3682 323.62 45.04ZM316.398 54.752L323.022 51.938H323.695V55.001L316.398 57.9893V54.752ZM329.597 52.9341C329.597 51.7554 329.207 50.6597 328.426 49.647L335.499 46.6587C336.046 47.605 336.412 48.6177 336.594 49.6968L329.597 52.5605V52.9341ZM316.398 59.0601L323.695 56.0718V58.5122L316.647 61.5254C316.498 60.8945 316.415 60.0728 316.398 59.0601ZM329.597 53.6313L336.793 50.6929C336.86 51.0249 336.893 51.5728 336.893 52.3364V53.1831L329.597 56.1714V53.6313ZM316.872 62.4966L323.77 59.6577C323.869 61.1021 324.832 61.8242 326.658 61.8242C328.617 61.8242 329.597 60.7202 329.597 58.5122V57.2422L336.893 54.2539V59.0601L317.868 64.8623C317.419 64.1982 317.087 63.4097 316.872 62.4966ZM326.658 68.7969C324.832 68.7969 323.695 68.7139 323.247 68.5479L335.797 64.3394C334.702 67.311 331.655 68.7969 326.658 68.7969ZM318.465 65.709L336.843 60.106C336.793 61.1353 336.586 62.1479 336.221 63.144L321.752 68C320.208 67.4355 319.113 66.6719 318.465 65.709ZM316.398 51.938H320.482L316.398 53.6812V51.938ZM317.195 37.644L324.666 35.8511C325.363 36.98 326.484 38.1504 328.028 39.3623L319.312 41.23C318.299 40.0347 317.594 38.8394 317.195 37.644ZM316.398 28.6294C316.398 28.314 316.407 28.0732 316.423 27.9072L327.455 18.3696C330.809 18.4858 333.149 19.3574 334.478 20.9844L316.398 29.8994V28.6294ZM325.911 18.3696L316.473 26.5127C316.722 21.2832 319.868 18.5688 325.911 18.3696ZM327.654 25.4419L335.1 21.7812C336.096 23.0264 336.669 24.7529 336.818 26.9609L329.597 29.7749V28.6294C329.597 26.853 328.949 25.7905 327.654 25.4419Z" fill="white"/>
</svg>
